<svg xmlns="http://www.w3.org/2000/svg" xmlns:xlink="http://www.w3.org/1999/xlink" viewBox="0 0 86.58 6.85"><defs><clipPath id="a"><polygon points="73.65 6.85 59.56 6.85 62.4 0.21 62.4 0.21 73.65 0.21 73.65 6.85" style="fill:none"/></clipPath></defs><path d="M4.36.37V.7H2.49V6.3H4.36v.33H.3V6.3H2.17V.7H.3V.37Z"/><path d="M6.83.37h4.41V.7H7.16V3.24h3.55v.33H7.16V6.3h4.08v.33H6.83Z"/><path d="M13.49.37H17.9V.7H13.82V3.24h3.55v.33H13.82V6.3H17.9v.33H13.49Z"/><path d="M20.15.37h4.41V.7H20.48V3.24H24v.33H20.48V6.3h4.08v.33H20.15Z"/><path d="M32.68.36h5.9l-2.95,6.4Zm3,5.61L38.07.69H33.2Z"/><path d="M44.32.37V.7H42.45V6.3h1.87v.33H40.26V6.3h1.87V.7H40.26V.37Z"/><path d="M47.84,3.3a1.85,1.85,0,0,1-.76-.51A1.21,1.21,0,0,1,46.81,2a1.61,1.61,0,0,1,.27-.92,1.73,1.73,0,0,1,.78-.61A2.91,2.91,0,0,1,49,.22a2.51,2.51,0,0,1,1.16.27,2.06,2.06,0,0,1,.83.74,1.93,1.93,0,0,1,.31,1.09H51a1.69,1.69,0,0,0-.26-.94A1.79,1.79,0,0,0,50,.76a2.19,2.19,0,0,0-1-.22,2.76,2.76,0,0,0-.91.15,1.61,1.61,0,0,0-.69.47,1.21,1.21,0,0,0-.26.79.93.93,0,0,0,.25.69,1.66,1.66,0,0,0,.66.39,10.49,10.49,0,0,0,1.13.29,10.44,10.44,0,0,1,1.15.29,1.64,1.64,0,0,1,.69.47,1.3,1.3,0,0,1,.29.9A1.6,1.6,0,0,1,51,6a1.82,1.82,0,0,1-.83.6,3.08,3.08,0,0,1-1.11.2,3.05,3.05,0,0,1-1.32-.28,2,2,0,0,1-.86-.79,2.17,2.17,0,0,1-.31-1.16h.34a1.93,1.93,0,0,0,.25,1,1.72,1.72,0,0,0,.74.67,2.61,2.61,0,0,0,1.16.24,2.29,2.29,0,0,0,1.37-.39A1.28,1.28,0,0,0,51,5a1,1,0,0,0-.23-.72,1.38,1.38,0,0,0-.59-.37c-.24-.07-.59-.16-1.07-.26A8,8,0,0,1,47.84,3.3Z"/><path d="M58.56,6.63h-5.9l3-6.4ZM53.18,6.3H58L55.61,1Z"/><path d="M60.52,6.63h-.33V.37h2.52a2.58,2.58,0,0,1,1.17.27,2.15,2.15,0,0,1,.85.76A2.08,2.08,0,0,1,65,2.55a2.18,2.18,0,0,1-.32,1.14,2.1,2.1,0,0,1-.87.8,2.49,2.49,0,0,1-1.14.24H60.52Zm0-2.23h2.19a2.13,2.13,0,0,0,.94-.18,1.85,1.85,0,0,0,1.06-1.67A1.85,1.85,0,0,0,63.65.88,2.16,2.16,0,0,0,62.71.7H60.52Z"/><path d="M68.35,1.76a.78.78,0,0,1-.24-.57.78.78,0,0,1,.24-.58.8.8,0,0,1,.58-.24.78.78,0,0,1,.58.24.78.78,0,0,1,.24.58.72.72,0,0,1-.12.4h0L68.81,3h-.39L69,2h-.09A.81.81,0,0,1,68.35,1.76Z"/><path d="M77.53,6.3v.33H73.64V6.3L75,4.81l1.23-1.33.11-.11a5.3,5.3,0,0,0,.55-.69,1.17,1.17,0,0,0,.2-.67,1.35,1.35,0,0,0-.2-.74,1.4,1.4,0,0,0-.56-.52,1.61,1.61,0,0,0-.78-.19,1.53,1.53,0,0,0-1.34.77,1.45,1.45,0,0,0-.2.77h-.34a1.91,1.91,0,0,1,.25-.94,2,2,0,0,1,.68-.68,1.92,1.92,0,0,1,1-.25,2,2,0,0,1,.95.23,1.82,1.82,0,0,1,.68.64,1.75,1.75,0,0,1,.25.91,1.47,1.47,0,0,1-.23.8,6.74,6.74,0,0,1-.62.78l-.11.12L74.09,6.3Z"/><path d="M82.09,6.3V1.51a2.18,2.18,0,0,1-.78.73,2.11,2.11,0,0,1-1,.27V2.19a1.8,1.8,0,0,0,.91-.25,2,2,0,0,0,.67-.67,1.8,1.8,0,0,0,.25-.91h.32V6.3H84.3v.33H80.2V6.3Z"/><g style="clip-path:url(#a)"><line x1="72.69" y1="-7.21" x2="54.04" y2="34.75" style="fill:none;stroke:#ff4880;stroke-miterlimit:10;stroke-width:2px"/></g></svg>