<?xml version="1.0" encoding="utf-8"?>
<!-- Generator: Adobe Illustrator 20.1.0, SVG Export Plug-In . SVG Version: 6.00 Build 0)  -->
<svg version="1.1" id="Layer_1" xmlns="http://www.w3.org/2000/svg" xmlns:xlink="http://www.w3.org/1999/xlink" x="0px" y="0px"
	 viewBox="0 0 72.9 109.9" style="enable-background:new 0 0 72.9 109.9;" xml:space="preserve">
<style type="text/css">
	.st0{fill:#FFFFFF;}
</style>
<path class="st0" d="M19.8,3.1L19,3.5l-6,21.4l-5.8,0.4L1.3,3.5L0.3,3.1V2.7c0-1,0.2-1.8,0.5-2.4h9.1L9.5,3.1L7.7,3.5l3.6,14.8h0.3
	l3.6-14.8l-1.8-0.4V2.7c0-1,0.2-1.8,0.5-2.4h6.3L19.8,3.1z"/>
<path class="st0" d="M30.6,22.5c0,0.9-0.1,1.8-0.5,2.4h-9.4l0.3-2.8l1.7-0.4V3.5l-1.9-0.4V2.7c0-0.9,0.1-1.8,0.5-2.4h9.4l-0.3,2.8
	l-1.7,0.4v18.2l1.9,0.4V22.5z"/>
<path class="st0" d="M38.1,25.3c-1.8,0-4-0.4-5.5-1.2v-5.9c0.6-0.4,2.1-0.7,2.9-0.7h0.4l0.8,3.9c0.5,0.3,1.4,0.5,2.1,0.5
	c0.5,0,1,0,1.3-0.2c0.2-0.1,0.6-1.1,0.6-2.2c0-4.7-8.5-4.2-8.5-11.5c0-4.4,3.1-7.9,8.4-7.9c1.5,0,3.6,0.3,5,0.8v5.8
	c-0.6,0.4-2.2,0.7-3,0.7h-0.4l-0.8-3.4c-0.4-0.2-1.1-0.3-1.7-0.3c-0.6,0-1,0.1-1.3,0.2C38.4,3.8,38,4.8,38,5.8
	c0,4.1,8.5,4.1,8.5,11.8C46.4,22.1,43.3,25.3,38.1,25.3z"/>
<path class="st0" d="M19.7,50.7c0,0.9-0.2,1.8-0.5,2.4h-9.1l0.2-2.8l2-0.4l-1.3-5.6l-5,0.5l-1.2,5.1l2.1,0.4v0.4
	c0,0.9-0.2,1.8-0.5,2.4H0l0.3-2.8L1,49.9l6-21.4l5.7-0.4l5.9,21.7l1,0.4V50.7z M8.7,34.8H8.5l-1.7,6.9h3.6L8.7,34.8z"/>
<path class="st0" d="M34.7,53.7l-5.6-10.1l-1,0.1v6.2l1.6,0.4v0.4c0,1-0.2,1.8-0.5,2.4h-9l0.3-2.8l1.7-0.4V31.7l-1.9-0.4v-0.4
	c0-0.9,0.1-1.8,0.5-2.4h9.4c4.7,0,7.7,2.4,7.7,7c0,2.5-1,4.9-3,6l4,10.2C38,52.8,36,53.6,34.7,53.7z M29.5,31.7h-1.4v9l2.3-0.2
	c0.9-0.8,1.4-2.4,1.4-4.6C31.9,33.1,30.9,31.7,29.5,31.7z"/>
<path class="st0" d="M57,34.6c-0.6,0.4-1.8,0.7-2.7,0.7H54l-0.8-3.6c-0.6,0-1.8,0.1-1.8,0.1v18.2l1.9,0.4v0.4c0,0.9-0.2,1.8-0.5,2.4
	h-9.4l0.3-2.8l1.7-0.4V32c-0.6,0-1.8,0.1-1.8,0.1l-0.8,3.1h-0.5c-0.8,0-2.1-0.3-2.6-0.7v-6H53l4.5-0.4L57,34.6z"/>
<path class="st0" d="M64.6,53.5c-1.8,0-4-0.4-5.5-1.2v-5.9c0.6-0.4,2.1-0.7,2.9-0.7h0.4l0.8,3.9c0.5,0.3,1.4,0.5,2.1,0.5
	c0.5,0,1,0,1.3-0.2c0.2-0.1,0.6-1.1,0.6-2.2c0-4.7-8.5-4.2-8.5-11.5c0-4.4,3.1-7.9,8.4-7.9c1.5,0,3.6,0.3,5,0.8v5.8
	c-0.6,0.4-2.2,0.7-3,0.7h-0.4l-0.8-3.4c-0.4-0.2-1.1-0.3-1.7-0.3c-0.6,0-1,0.1-1.3,0.2C64.9,32,64.5,33,64.5,34
	c0,4.1,8.5,4.1,8.5,11.8C72.9,50.3,69.8,53.5,64.6,53.5z"/>
<path class="st0" d="M2.5,93.8c-0.8-0.1-1.5-0.4-2-1.1l1.9-4.4l-1.4-0.9c0-2.8,0.9-4.1,2.6-4.1c1.7,0,2.9,1.2,2.9,4.9L2.5,93.8z"/>
<path class="st0" d="M17.9,107c0,0.9-0.2,1.9-0.5,2.5h-10l0.3-2.7l2.4-0.4V93.2l-0.9-0.4c-0.8-0.4-1-0.6-1.2-1V90h7.9v16.5l2.1,0.4
	V107z"/>
<path class="st0" d="M25.7,109.9c-4.4,0-6.5-2.4-6.5-5.5c0-2,0.8-3.6,2.4-5l1.4-1.1c-2.4-1.8-3.7-3.9-3.7-6.7c0-3.9,2.4-7,6.8-7
	c4.1,0,6.4,2.2,6.4,5.6c0,2-0.8,3.5-2.2,4.6l-1.4,1.1c2.3,1.8,3.7,3.7,3.7,6.9C32.6,106.7,30.2,109.9,25.7,109.9z M25.2,99.7
	c-1.1,1.3-1.4,2.5-1.4,3.9c0,1.9,0.8,3,2.1,3c0.4,0,0.8-0.1,1.2-0.2c0.2-0.1,0.6-0.9,0.6-2.5C27.6,102,26.9,100.9,25.2,99.7z
	 M26.6,94.5c0.9-1,1.3-2.3,1.3-3.7c0-1.9-0.8-2.9-2-2.9c-0.4,0-0.8,0.1-1,0.1c-0.4,0.1-0.7,1.1-0.7,2.6S25,93.2,26.6,94.5z"/>
<g>
	<path class="st0" d="M340.2,71.7l-2,0.3v6.2l2.1,0.4v0.4c0,0.9-0.2,1.8-0.5,2.4h-9.5l0.3-2.8l1.7-0.4V59.9l-1.9-0.4v-0.4
		c0-0.9,0.1-1.8,0.5-2.4h9.2c5,0,7.9,2.4,7.9,7.1C347.9,68.4,345.4,71,340.2,71.7z M339.6,59.9h-1.4v9l2.3-0.2
		c0.8-0.8,1.3-2.4,1.3-4.6C341.9,61.4,341.1,59.9,339.6,59.9z"/>
	<path class="st0" d="M363.9,81.9l-5.6-10.1l-1,0.1v6.2l1.6,0.4v0.4c0,1-0.2,1.8-0.5,2.4h-9l0.3-2.8l1.7-0.4V59.9l-1.9-0.4v-0.4
		c0-0.9,0.1-1.8,0.5-2.4h9.4c4.7,0,7.7,2.4,7.7,7c0,2.5-1,4.9-3,6l4,10.2C367.1,81,365.1,81.8,363.9,81.9z M358.7,59.9h-1.4v9
		l2.3-0.2c0.9-0.8,1.4-2.4,1.4-4.6C361,61.3,360.1,59.9,358.7,59.9z"/>
	<path class="st0" d="M378.7,81.7c-5.9,0-9.7-4.6-9.7-12.6c0-8,3.9-12.6,9.8-12.6c5.9,0,9.7,4.6,9.7,12.6
		C388.5,77.1,384.6,81.7,378.7,81.7z M378.6,60.1c-1.9,0-3,1.9-3,9c0,7.2,1,9,3.2,9c2.1,0,3-1.9,3-9
		C381.8,61.8,380.8,60.1,378.6,60.1z"/>
	<path class="st0" d="M408.6,71.9l-1.1,0.4v9l-0.5,0.4l-2.9-1c-1.2,0.6-2.6,1-4.1,1c-5.9,0-10-4.1-10-12.5c0-7.8,4.1-12.8,11-12.8
		c1.8,0,4.6,0.4,6.3,1v6.7c-0.6,0.4-2.2,0.7-3,0.7H404l-0.9-4.2c-0.8-0.3-2.4-0.6-3.3-0.6c-0.6,0-1.1,0.1-1.4,0.1
		c-0.6,0.1-1.8,3.3-1.8,9.1c0,6.4,1.1,8.9,3.8,8.9c0.4,0,1,0,1.4-0.1v-5.6l-1.7-0.4v-0.4c0-0.9,0.1-1.8,0.5-2.4h8.1L408.6,71.9z"/>
	<path class="st0" d="M425.1,81.9l-5.6-10.1l-1,0.1v6.2l1.6,0.4v0.4c0,1-0.2,1.8-0.5,2.4h-9l0.3-2.8l1.7-0.4V59.9l-1.9-0.4v-0.4
		c0-0.9,0.1-1.8,0.5-2.4h9.4c4.7,0,7.7,2.4,7.7,7c0,2.5-1,4.9-3,6l4,10.2C428.4,81,426.4,81.8,425.1,81.9z M419.9,59.9h-1.4v9
		l2.3-0.2c0.9-0.8,1.4-2.4,1.4-4.6C422.3,61.3,421.3,59.9,419.9,59.9z"/>
	<path class="st0" d="M448.9,78.9c0,0.9-0.2,1.8-0.5,2.4h-9.1l0.2-2.8l2-0.4l-1.3-5.6l-5,0.5l-1.2,5.1l2.1,0.4v0.4
		c0,0.9-0.2,1.8-0.5,2.4h-6.4l0.3-2.8l0.8-0.4l6-21.4l5.7-0.4l5.9,21.7l1,0.4V78.9z M437.9,63h-0.3l-1.7,6.9h3.6L437.9,63z"/>
	<path class="st0" d="M475.6,78.9c0,0.9-0.2,1.8-0.5,2.4h-8.9l0.2-2.8l1.9-0.4c-0.1-4.4-0.4-13.9-0.4-13.9h-0.3l-4.2,17.1l-3.8,0.4
		l-4.1-17.4h-0.3l-0.5,13.9l2.1,0.4v0.4c0,0.9-0.2,1.8-0.5,2.4h-7l0.3-2.8l1.5-0.4l0.7-18.2l-2.2-0.4v-0.4c0-0.9,0.2-1.8,0.5-2.4h9
		l3.5,15.1l3.6-15.1h9.3l-0.3,2.8l-1.9,0.4c0,0,0.4,12.3,0.5,18.2l1.7,0.4V78.9z"/>
</g>
</svg>
