<svg xmlns="http://www.w3.org/2000/svg" viewBox="0 0 188.57 31.16"><defs><style>.a{fill:#fff;}</style></defs><path class="a" d="M8.47,25.66v-20H19.16V6.91H9.84v7.7H18.2v1.24H9.84V24.4h9.32v1.26Z"/><path class="a" d="M24.46,25.66,30.4,15.24,24.87,5.65H26.4l3.35,6.09c.16.31.39.72.7,1.23l.78,1.31c.2-.36.45-.8.75-1.31s.54-.92.73-1.23l3.4-6.09h1.48l-5.54,9.54,6,10.47H36.46l-3.72-6.91-.7-1.2q-.46-.77-.78-1.35l-.77,1.35c-.3.51-.52.91-.69,1.2L26,25.66Z"/><path class="a" d="M43.84,25.66v-20h1.37v9h7.68v-9h1.37v20H52.89V15.9H45.21v9.76Z"/><path class="a" d="M61.93,25.66V24.4h4.28V6.88H61.93V5.62H71.8V6.88H67.58V24.4H71.8v1.26Z"/><path class="a" d="M79.48,25.66v-20h5.15a5.55,5.55,0,0,1,4,1.4,4.87,4.87,0,0,1,1.5,3.75,5.38,5.38,0,0,1-.54,2.47,3.94,3.94,0,0,1-1.49,1.66,4.35,4.35,0,0,1-2.3.59v-.28a5.21,5.21,0,0,1,2.56.61A4.11,4.11,0,0,1,90,17.56a5.42,5.42,0,0,1,.59,2.62,5.81,5.81,0,0,1-.71,2.91,4.87,4.87,0,0,1-2,1.9,6.89,6.89,0,0,1-3.14.67Zm1.37-10.91h3.78a4.25,4.25,0,0,0,3-1,3.83,3.83,0,0,0,1.08-2.88A3.8,3.8,0,0,0,87.65,8a4.23,4.23,0,0,0-3-1H80.85Zm0,9.65h3.87A4.68,4.68,0,0,0,88,23.28a4,4,0,0,0,1.2-3.07A4.06,4.06,0,0,0,88,17.12,4.65,4.65,0,0,0,84.72,16H80.85Z"/><path class="a" d="M97.58,25.66V24.4h4.27V6.88H97.58V5.62h9.87V6.88h-4.23V24.4h4.23v1.26Z"/><path class="a" d="M119.67,25.66V6.91h-5.92V5.65h13.16V6.91h-5.86V25.66Z"/><path class="a" d="M133.22,25.66V24.4h4.28V6.88h-4.28V5.62h9.87V6.88h-4.22V24.4h4.22v1.26Z"/><path class="a" d="M156,25.94a5.79,5.79,0,0,1-2.82-.67,4.63,4.63,0,0,1-1.86-1.91,6.07,6.07,0,0,1-.66-2.91V10.86a6,6,0,0,1,.66-2.9,4.72,4.72,0,0,1,1.86-1.9,6.13,6.13,0,0,1,5.65,0A4.79,4.79,0,0,1,160.66,8a6,6,0,0,1,.66,2.9v9.59a6.07,6.07,0,0,1-.66,2.91,4.66,4.66,0,0,1-1.85,1.91A5.76,5.76,0,0,1,156,25.94Zm0-1.21a3.81,3.81,0,0,0,2.94-1.12,4.49,4.49,0,0,0,1-3.16V10.86a4.41,4.41,0,0,0-1.06-3.16,4.37,4.37,0,0,0-5.84,0A4.45,4.45,0,0,0,152,10.86v9.59a4.49,4.49,0,0,0,1,3.16A3.8,3.8,0,0,0,156,24.73Z"/><path class="a" d="M168.59,25.66v-20h1.86l7.35,18.5q0-.54-.06-1.2c0-.44,0-.84,0-1.21s0-.61,0-.74V5.65H179v20h-1.9l-7.26-18.5a6.32,6.32,0,0,1,0,.72c0,.32,0,.69,0,1.1s0,.85,0,1.33V25.66Z"/></svg>